<mxfile host="Electron" agent="Mozilla/5.0 (X11; Linux x86_64) AppleWebKit/537.36 (KHTML, like Gecko) draw.io/26.0.16 Chrome/132.0.6834.196 Electron/34.2.0 Safari/537.36" version="26.0.16">
  <diagram name="Page-1" id="6133507b-19e7-1e82-6fc7-422aa6c4b21f">
    <mxGraphModel dx="1434" dy="839" grid="1" gridSize="10" guides="1" tooltips="1" connect="1" arrows="1" fold="1" page="1" pageScale="1" pageWidth="1100" pageHeight="850" background="none" math="0" shadow="0">
      <root>
        <mxCell id="0" />
        <mxCell id="1" parent="0" />
        <mxCell id="Bxu_l8mAO5wvdg1m-7lr-1" value="&lt;div&gt;&lt;font&gt;ESP32&lt;/font&gt;&lt;/div&gt;&lt;div&gt;&lt;font&gt;Microcontroller&lt;/font&gt;&lt;/div&gt;" style="rounded=1;whiteSpace=wrap;html=1;labelPosition=center;verticalLabelPosition=middle;align=center;verticalAlign=top;labelBackgroundColor=none;fontFamily=Lucida Console;labelBorderColor=none;textShadow=1;spacing=4;fontSize=18;shadow=0;glass=0;fillColor=#e1d5e7;strokeColor=#9673a6;fontColor=#CD41F0;" parent="1" vertex="1">
          <mxGeometry x="380" y="180" width="200" height="120" as="geometry" />
        </mxCell>
        <mxCell id="Bxu_l8mAO5wvdg1m-7lr-18" value="" style="edgeStyle=orthogonalEdgeStyle;rounded=0;orthogonalLoop=1;jettySize=auto;html=1;" parent="1" source="Bxu_l8mAO5wvdg1m-7lr-8" target="Bxu_l8mAO5wvdg1m-7lr-17" edge="1">
          <mxGeometry relative="1" as="geometry" />
        </mxCell>
        <mxCell id="Bxu_l8mAO5wvdg1m-7lr-19" value="" style="edgeStyle=orthogonalEdgeStyle;rounded=0;orthogonalLoop=1;jettySize=auto;html=1;" parent="1" source="Bxu_l8mAO5wvdg1m-7lr-8" target="Bxu_l8mAO5wvdg1m-7lr-1" edge="1">
          <mxGeometry relative="1" as="geometry" />
        </mxCell>
        <mxCell id="Bxu_l8mAO5wvdg1m-7lr-8" value="ElectronHub" style="whiteSpace=wrap;html=1;fontSize=18;fontFamily=Lucida Console;verticalAlign=top;fillColor=#dae8fc;strokeColor=#6c8ebf;rounded=1;labelBackgroundColor=none;labelBorderColor=none;spacing=4;shadow=0;glass=0;fontColor=#0000CC;" parent="1" vertex="1">
          <mxGeometry x="672.5" y="201.25" width="145" height="77.5" as="geometry" />
        </mxCell>
        <mxCell id="Bxu_l8mAO5wvdg1m-7lr-20" style="edgeStyle=orthogonalEdgeStyle;rounded=0;orthogonalLoop=1;jettySize=auto;html=1;entryX=0.5;entryY=1;entryDx=0;entryDy=0;" parent="1" source="Bxu_l8mAO5wvdg1m-7lr-17" target="Bxu_l8mAO5wvdg1m-7lr-1" edge="1">
          <mxGeometry relative="1" as="geometry" />
        </mxCell>
        <mxCell id="Bxu_l8mAO5wvdg1m-7lr-25" style="edgeStyle=orthogonalEdgeStyle;rounded=0;orthogonalLoop=1;jettySize=auto;html=1;entryX=0.5;entryY=0;entryDx=0;entryDy=0;curved=1;" parent="1" source="Bxu_l8mAO5wvdg1m-7lr-17" target="Bxu_l8mAO5wvdg1m-7lr-23" edge="1">
          <mxGeometry relative="1" as="geometry" />
        </mxCell>
        <mxCell id="Bxu_l8mAO5wvdg1m-7lr-28" style="edgeStyle=orthogonalEdgeStyle;rounded=0;orthogonalLoop=1;jettySize=auto;html=1;entryX=0.5;entryY=0;entryDx=0;entryDy=0;curved=1;" parent="1" source="Bxu_l8mAO5wvdg1m-7lr-17" target="Bxu_l8mAO5wvdg1m-7lr-31" edge="1">
          <mxGeometry relative="1" as="geometry">
            <mxPoint x="835" y="560" as="targetPoint" />
          </mxGeometry>
        </mxCell>
        <mxCell id="Bxu_l8mAO5wvdg1m-7lr-17" value="AnalogCatch" style="whiteSpace=wrap;html=1;fontSize=18;fontFamily=Lucida Console;verticalAlign=top;fillColor=#dae8fc;strokeColor=#6c8ebf;rounded=1;labelBackgroundColor=none;labelBorderColor=none;spacing=4;shadow=0;glass=0;fontColor=#0000CC;" parent="1" vertex="1">
          <mxGeometry x="685" y="415" width="120" height="60" as="geometry" />
        </mxCell>
        <mxCell id="Bxu_l8mAO5wvdg1m-7lr-35" value="" style="edgeStyle=orthogonalEdgeStyle;rounded=0;orthogonalLoop=1;jettySize=auto;html=1;" parent="1" source="Bxu_l8mAO5wvdg1m-7lr-23" target="Bxu_l8mAO5wvdg1m-7lr-30" edge="1">
          <mxGeometry relative="1" as="geometry" />
        </mxCell>
        <mxCell id="Bxu_l8mAO5wvdg1m-7lr-23" value="Signal&lt;div&gt;Converter&lt;/div&gt;" style="rhombus;whiteSpace=wrap;html=1;fontSize=14;fontFamily=Lucida Console;verticalAlign=middle;fillColor=#6d8764;strokeColor=#3A5431;rounded=1;labelBackgroundColor=none;labelBorderColor=none;spacing=4;shadow=0;glass=0;fontColor=#ffffff;" parent="1" vertex="1">
          <mxGeometry x="620" y="560" width="105" height="95" as="geometry" />
        </mxCell>
        <mxCell id="Bxu_l8mAO5wvdg1m-7lr-30" value="PT100" style="sketch=0;outlineConnect=0;fontColor=#FFFFFF;gradientColor=none;fillColor=#7AA116;strokeColor=none;dashed=0;verticalLabelPosition=bottom;verticalAlign=top;align=center;html=1;fontSize=14;fontStyle=0;aspect=fixed;pointerEvents=1;shape=mxgraph.aws4.iot_thing_temperature_sensor;labelBackgroundColor=default;" parent="1" vertex="1">
          <mxGeometry x="633.5" y="700" width="78" height="78" as="geometry" />
        </mxCell>
        <mxCell id="Bxu_l8mAO5wvdg1m-7lr-34" value="" style="edgeStyle=orthogonalEdgeStyle;rounded=0;orthogonalLoop=1;jettySize=auto;html=1;" parent="1" source="Bxu_l8mAO5wvdg1m-7lr-31" target="Bxu_l8mAO5wvdg1m-7lr-33" edge="1">
          <mxGeometry relative="1" as="geometry" />
        </mxCell>
        <mxCell id="Bxu_l8mAO5wvdg1m-7lr-31" value="Signal&lt;div&gt;Converter&lt;/div&gt;" style="rhombus;whiteSpace=wrap;html=1;fontSize=14;fontFamily=Lucida Console;verticalAlign=middle;fillColor=#6d8764;strokeColor=#3A5431;rounded=1;labelBackgroundColor=none;labelBorderColor=none;spacing=4;shadow=0;glass=0;fontColor=#ffffff;" parent="1" vertex="1">
          <mxGeometry x="780" y="560" width="105" height="95" as="geometry" />
        </mxCell>
        <mxCell id="Bxu_l8mAO5wvdg1m-7lr-33" value="Other Probe?" style="sketch=0;outlineConnect=0;fontColor=#FFFFFF;gradientColor=none;fillColor=#7AA116;strokeColor=none;dashed=0;verticalLabelPosition=bottom;verticalAlign=top;align=center;html=1;fontSize=14;fontStyle=0;aspect=fixed;pointerEvents=1;shape=mxgraph.aws4.iot_thing_temperature_sensor;labelBackgroundColor=default;" parent="1" vertex="1">
          <mxGeometry x="793.5" y="700" width="78" height="78" as="geometry" />
        </mxCell>
        <mxCell id="Bxu_l8mAO5wvdg1m-7lr-38" value="" style="edgeStyle=orthogonalEdgeStyle;rounded=0;orthogonalLoop=1;jettySize=auto;html=1;entryX=0.5;entryY=0;entryDx=0;entryDy=0;" parent="1" source="Bxu_l8mAO5wvdg1m-7lr-36" target="Bxu_l8mAO5wvdg1m-7lr-8" edge="1">
          <mxGeometry relative="1" as="geometry">
            <mxPoint x="890" y="160" as="targetPoint" />
          </mxGeometry>
        </mxCell>
        <mxCell id="Bxu_l8mAO5wvdg1m-7lr-36" value="PD&amp;nbsp;&lt;div&gt;12V&lt;/div&gt;" style="verticalLabelPosition=bottom;verticalAlign=top;html=1;shape=mxgraph.basic.flash;fillColor=#FFF700;strokeColor=#050505;shadow=1;gradientColor=default;fontSize=14;labelBackgroundColor=default;" parent="1" vertex="1">
          <mxGeometry x="960" y="110" width="60" height="100" as="geometry" />
        </mxCell>
        <mxCell id="Bxu_l8mAO5wvdg1m-7lr-39" value="Wifi" style="sketch=0;pointerEvents=1;shadow=0;dashed=0;html=1;strokeColor=none;fillColor=#434445;aspect=fixed;labelPosition=center;verticalLabelPosition=bottom;verticalAlign=top;align=center;outlineConnect=0;shape=mxgraph.vvd.wi_fi;fontColor=#050505;fontSize=14;" parent="1" vertex="1">
          <mxGeometry x="390" y="240" width="30" height="30" as="geometry" />
        </mxCell>
        <mxCell id="Bxu_l8mAO5wvdg1m-7lr-41" value="Monitor" style="html=1;verticalLabelPosition=bottom;align=center;labelBackgroundColor=none;verticalAlign=top;strokeWidth=2;shadow=0;dashed=0;shape=mxgraph.ios7.icons.monitor;strokeColor=#050505;fontColor=#050505;fontSize=14;" parent="1" vertex="1">
          <mxGeometry x="450" y="240" width="40" height="30" as="geometry" />
        </mxCell>
        <mxCell id="Bxu_l8mAO5wvdg1m-7lr-42" value="CPU" style="pointerEvents=1;shadow=0;dashed=0;html=1;labelPosition=center;verticalLabelPosition=bottom;verticalAlign=top;align=center;outlineConnect=0;shape=mxgraph.veeam.cpu;strokeColor=#050505;fontColor=#050505;fontSize=14;" parent="1" vertex="1">
          <mxGeometry x="517" y="233" width="40" height="40" as="geometry" />
        </mxCell>
        <mxCell id="Bxu_l8mAO5wvdg1m-7lr-47" value="" style="shape=partialRectangle;whiteSpace=wrap;html=1;bottom=1;right=1;left=1;top=0;routingCenterX=-0.5;direction=south;labelBackgroundColor=none;fillColor=none;strokeColor=#FFB570;strokeWidth=4;" parent="1" vertex="1">
          <mxGeometry x="50" y="170.75" width="30" height="166.75" as="geometry" />
        </mxCell>
        <mxCell id="Bxu_l8mAO5wvdg1m-7lr-48" value="" style="shape=partialRectangle;whiteSpace=wrap;html=1;bottom=1;right=1;left=1;top=0;routingCenterX=-0.5;direction=north;labelBackgroundColor=none;fillColor=none;strokeColor=#FFB570;strokeWidth=4;" parent="1" vertex="1">
          <mxGeometry x="237" y="168.5" width="30" height="166.75" as="geometry" />
        </mxCell>
        <mxCell id="Bxu_l8mAO5wvdg1m-7lr-49" value="" style="shape=mxgraph.arrows2.wedgeArrowDashed2;html=1;bendable=0;startWidth=50;stepSize=15;rounded=0;entryX=-0.006;entryY=0.575;entryDx=0;entryDy=0;entryPerimeter=0;exitX=0.5;exitY=1;exitDx=0;exitDy=0;fillColor=#f0a30a;strokeColor=#BD7000;strokeWidth=2;" parent="1" source="Bxu_l8mAO5wvdg1m-7lr-48" target="Bxu_l8mAO5wvdg1m-7lr-1" edge="1">
          <mxGeometry width="100" height="100" relative="1" as="geometry">
            <mxPoint x="260" y="340" as="sourcePoint" />
            <mxPoint x="360" y="240" as="targetPoint" />
          </mxGeometry>
        </mxCell>
        <mxCell id="Bxu_l8mAO5wvdg1m-7lr-50" value="Cloud Backend" style="whiteSpace=wrap;html=1;shape=mxgraph.basic.cloud_rect;strokeWidth=2;fontSize=18;" parent="1" vertex="1">
          <mxGeometry x="100" y="90" width="120" height="90" as="geometry" />
        </mxCell>
        <mxCell id="Bxu_l8mAO5wvdg1m-7lr-51" value="Dispatch energy (PCB)" style="text;html=1;align=center;verticalAlign=middle;whiteSpace=wrap;rounded=0;fontColor=#08081D;fontSize=14;" parent="1" vertex="1">
          <mxGeometry x="694" y="239.13" width="110" height="30" as="geometry" />
        </mxCell>
        <mxCell id="Bxu_l8mAO5wvdg1m-7lr-52" value="Data hub (PCB)" style="text;html=1;align=center;verticalAlign=middle;whiteSpace=wrap;rounded=0;fontColor=#08081D;fontSize=14;" parent="1" vertex="1">
          <mxGeometry x="691" y="444" width="110" height="30" as="geometry" />
        </mxCell>
        <mxCell id="DyvMlbZ2IUlseg7p006H-1" value="" style="verticalLabelPosition=bottom;html=1;verticalAlign=top;align=center;strokeColor=none;fillColor=#00BEF2;shape=mxgraph.azure.sql_database;" vertex="1" parent="1">
          <mxGeometry x="80" y="195.76" width="30" height="43.37" as="geometry" />
        </mxCell>
        <mxCell id="DyvMlbZ2IUlseg7p006H-2" value="" style="image;sketch=0;aspect=fixed;html=1;points=[];align=center;fontSize=12;image=img/lib/mscae/Docker.svg;" vertex="1" parent="1">
          <mxGeometry x="108.48" y="255.09" width="91.35" height="74.91" as="geometry" />
        </mxCell>
        <mxCell id="DyvMlbZ2IUlseg7p006H-4" value="" style="image;points=[];aspect=fixed;html=1;align=center;shadow=0;dashed=0;image=img/lib/allied_telesis/storage/Datacenter_Server_Rack_EoR.svg;" vertex="1" parent="1">
          <mxGeometry x="205.63" y="191.69" width="31.37" height="63.4" as="geometry" />
        </mxCell>
        <mxCell id="DyvMlbZ2IUlseg7p006H-5" value="" style="sketch=0;outlineConnect=0;fontColor=#232F3E;gradientColor=none;fillColor=#7AA116;strokeColor=none;dashed=0;verticalLabelPosition=bottom;verticalAlign=top;align=center;html=1;fontSize=12;fontStyle=0;aspect=fixed;pointerEvents=1;shape=mxgraph.aws4.mqtt_protocol;" vertex="1" parent="1">
          <mxGeometry x="130" y="191.69" width="48.31" height="48.31" as="geometry" />
        </mxCell>
      </root>
    </mxGraphModel>
  </diagram>
</mxfile>
